<?xml version="1.0" encoding="utf-8"?>
<!-- Generator: Adobe Illustrator 23.0.3, SVG Export Plug-In . SVG Version: 6.00 Build 0)  -->
<svg version="1.1" xmlns="http://www.w3.org/2000/svg" xmlns:xlink="http://www.w3.org/1999/xlink" x="0px" y="0px"
	 viewBox="0 0 100 125" style="enable-background:new 0 0 100 125;" xml:space="preserve">
<g id="Layer_2">
</g>
<g id="Layer_1">
	<g>
		<path d="M8.2,52.8l-6-20.1c-0.5-1.8,0.5-3.7,2.3-4.2l0,0C6.3,28,8.2,29,8.7,30.8l3.5,11.7C18.7,28.4,33,18.7,49.5,18.7
			c17.7,0,32.8,11.2,38.7,26.8c0.8,2.2-0.8,4.6-3.1,4.6c-1.4,0-2.7-0.9-3.2-2.2C77,34.8,64.3,25.4,49.5,25.4
			c-14.2,0-26.5,8.6-31.8,21l12.8-3.9c1.8-0.5,3.7,0.5,4.2,2.3l0,0c0.5,1.8-0.5,3.7-2.3,4.2l-20.1,6C10.6,55.5,8.7,54.5,8.2,52.8z"
			/>
		<path d="M90.4,89.3l-3.5-11.7c-6.6,14-20.9,23.7-37.4,23.7c-17.7,0-32.8-11.2-38.7-26.8c-0.8-2.2,0.8-4.6,3.1-4.6
			c1.4,0,2.7,0.9,3.2,2.2C22,85.2,34.7,94.6,49.5,94.6c14.2,0,26.5-8.6,31.8-21l-12.8,3.9c-1.8,0.5-3.7-0.5-4.2-2.3s0.5-3.7,2.3-4.2
			l20.1-6c1.8-0.5,3.7,0.5,4.2,2.3l6,20.1c0.5,1.8-0.5,3.7-2.3,4.2l0,0C92.8,92.1,90.9,91.1,90.4,89.3z"/>
	</g>
</g>
</svg>
